<?xml version="1.0" encoding="UTF-8"?>
<svg width="1482px" height="1482px" viewBox="0 0 1482 1482" version="1.1" xmlns="http://www.w3.org/2000/svg" xmlns:xlink="http://www.w3.org/1999/xlink">
    <!-- Generator: Sketch 53.2 (72643) - https://sketchapp.com -->
    <title>spotify-2015-seeklogo.com</title>
    <desc>Created with Sketch.</desc>
    <defs>
        <polygon id="path-1" points="0 0.03 1481.97 0.03 1481.97 1481.94 0 1481.94"></polygon>
    </defs>
    <g id="spotify-2015-seeklogo.com" stroke="none" stroke-width="1" fill="none" fill-rule="evenodd">
        <g id="Group-3">
            <mask id="mask-2" fill="white">
                <use xlink:href="#path-1"></use>
            </mask>
            <g id="Clip-2"></g>
            <path d="M1481.97,741.015 C1481.97,1150.25 1150.22,1482 740.985,1482 C331.75,1482 0,1150.25 0,741.015 C0,331.78 331.75,0.03 740.985,0.03 C1150.22,0.03 1481.97,331.78 1481.97,741.015" id="Fill-1" fill="#4DB05C" mask="url(#mask-2)"></path>
        </g>
        <path d="M1282.51,595.789 C1282.29,649.441 1226.04,682.295 1178.92,655.637 C1146.97,637.556 1114.26,621.17 1080.19,607.51 C1012.5,580.373 942.346,562.111 870.643,549.462 C820.732,540.658 770.446,534.829 719.885,531.792 C667.314,528.635 614.708,528.263 562.059,530.988 C501.735,534.111 441.886,540.735 382.828,553.491 C361.035,558.198 339.497,564.133 317.945,569.892 C304.729,573.424 291.704,573.874 278.539,570.023 C249.725,561.592 229.862,535.776 229.008,505.545 C228.179,476.18 246.295,448.881 274.762,439.498 C295.603,432.628 316.99,427.23 338.39,422.282 C391.365,410.036 445.081,402.468 499.229,397.525 C556.719,392.277 614.315,390.587 671.951,392.237 C813.945,396.302 953.177,417.066 1087.92,463.584 C1142.86,482.551 1195.74,506.093 1246,535.417 C1263.91,545.872 1275.94,560.605 1280.52,580.985 C1281.61,585.824 1281.87,590.85 1282.51,595.789" id="Fill-4" fill="#0A0B09"></path>
        <path d="M611.764,761.286 C527.129,761.641 440.432,772.132 355.75,797.264 C341.951,801.359 328.104,801.634 314.584,796.157 C292.582,787.244 278.267,765.196 279.043,741.865 C279.852,717.529 294.691,696.333 318.153,689.17 C342.027,681.881 366.26,675.561 390.631,670.149 C450.627,656.824 511.433,649.778 572.874,647.446 C705.055,642.429 834.179,659.528 960.148,699.903 C1023.85,720.318 1084.78,747.048 1142.33,781.278 C1145.2,782.981 1148.04,784.721 1150.88,786.458 C1180.9,804.796 1184.48,841.714 1170.17,865.237 C1153.8,892.134 1119.76,900.498 1091.47,884.542 C1075.51,875.54 1059.74,866.156 1043.42,857.84 C968.627,819.717 889.324,795.004 807.034,779.428 C743.676,767.435 679.724,761.573 611.764,761.286" id="Fill-5" fill="#0A0B09"></path>
        <path d="M624.996,886.806 C722.422,887.832 817.729,901 910.223,932.194 C961.242,949.399 1009.96,971.658 1056.23,999.223 C1060.24,1001.61 1064.31,1003.96 1068.01,1006.77 C1086.68,1020.95 1091.53,1046.62 1079.51,1066.83 C1067.86,1086.43 1043.13,1094.32 1021.98,1084.98 C1017.74,1083.11 1013.76,1080.59 1009.75,1078.21 C931.333,1031.73 846.711,1002.94 756.761,989.161 C701.565,980.709 646.061,977.778 590.328,979.968 C518.232,982.803 447.042,992.805 376.609,1008.4 C369.495,1009.97 362.176,1011.4 354.937,1011.48 C333.13,1011.72 314.721,996.251 310.893,975.28 C306.84,953.072 317.841,932.258 338.209,924.071 C342.508,922.342 347.097,921.237 351.636,920.217 C409.248,907.283 467.4,897.502 526.24,892.525 C559.085,889.746 592.073,888.656 624.996,886.806" id="Fill-6" fill="#0A0B09"></path>
    </g>
</svg>